<?xml version="1.0" encoding="UTF-8" standalone="no"?>
<svg
   xmlns:dc="http://purl.org/dc/elements/1.1/"
   xmlns:cc="http://creativecommons.org/ns#"
   xmlns:rdf="http://www.w3.org/1999/02/22-rdf-syntax-ns#"
   xmlns:svg="http://www.w3.org/2000/svg"
   xmlns="http://www.w3.org/2000/svg"
   xmlns:sodipodi="http://sodipodi.sourceforge.net/DTD/sodipodi-0.dtd"
   xmlns:inkscape="http://www.inkscape.org/namespaces/inkscape"
   width="512"
   height="512"
   version="1.1"
   id="svg3803"
   sodipodi:docname="iconfinder-icon.svg"
   inkscape:version="0.92.3 (2405546, 2018-03-11)"
   inkscape:export-filename="/home/gabriel/Desktop/iconfinder-icon.svg.png"
   inkscape:export-xdpi="96.889999"
   inkscape:export-ydpi="96.889999">
  <metadata
     id="metadata3809">
    <rdf:RDF>
      <cc:Work
         rdf:about="">
        <dc:format>image/svg+xml</dc:format>
        <dc:type
           rdf:resource="http://purl.org/dc/dcmitype/StillImage" />
        <dc:title></dc:title>
      </cc:Work>
    </rdf:RDF>
  </metadata>
  <defs
     id="defs3807" />
  <sodipodi:namedview
     pagecolor="#ffffff"
     bordercolor="#666666"
     borderopacity="1"
     objecttolerance="10"
     gridtolerance="10"
     guidetolerance="10"
     inkscape:pageopacity="0"
     inkscape:pageshadow="2"
     inkscape:window-width="1366"
     inkscape:window-height="673"
     id="namedview3805"
     showgrid="false"
     inkscape:zoom="0.91015625"
     inkscape:cx="-81.854077"
     inkscape:cy="256"
     inkscape:window-x="0"
     inkscape:window-y="27"
     inkscape:window-maximized="1"
     inkscape:current-layer="svg3803" />
  <g
     id="g3792">
    <title
       id="title3789">background</title>
    <rect
       id="canvas_background"
       height="402"
       width="582"
       y="-1"
       x="-1"
       fill="none" />
  </g>
  <g
     id="g3801"
     style="fill:#9d2c80;fill-opacity:1"
     transform="matrix(0.97184184,0,0,0.93307064,7.2084897,13.133919)">
    <title
       id="title3794">Layer 1</title>
    <path
       stroke="null"
       id="svg_3"
       d="M 437.78446,42.592011 H 74.215548 c -28.855524,0 -52.331484,23.47596 -52.331484,52.331484 V 320.5713 c 0,28.85552 23.47596,52.33148 52.331484,52.33148 H 208.74788 l -12.54129,63.43153 H 155.5463 c -9.13343,0 -16.53685,7.40341 -16.53685,16.53684 0,9.13343 7.40342,16.53685 16.53685,16.53685 10.44747,0 190.40015,0 200.90741,0 9.13343,0 16.53685,-7.40342 16.53685,-16.53685 0,-9.13343 -7.40342,-16.53684 -16.53685,-16.53684 h -40.66029 l -12.54129,-63.43153 h 134.53233 c 28.85553,0 52.33149,-23.47596 52.33149,-52.33148 V 94.923495 C 490.11467,66.067971 466.63999,42.592011 437.78446,42.592011 Z M 282.07861,436.33303 h -52.15848 l 12.54129,-63.43152 h 27.07463 z m 174.96237,-115.763 c 0,10.61919 -8.63987,19.25779 -19.25779,19.25779 -12.75373,0 -341.633424,0 -363.567642,0 -10.619199,0 -19.257793,-8.6386 -19.257793,-19.25779 V 94.923495 c 0,-10.619199 8.638594,-19.257793 19.257793,-19.257793 H 437.78446 c 10.6192,0 19.25779,8.638594 19.25779,19.257793 V 320.57003 Z"
       style="fill:#9d2c80;fill-opacity:1"
       inkscape:connector-curvature="0" />
  </g>
  <path
     style="fill:#183333;fill-opacity:1;stroke-width:1.16494"
     d="m 56.89881,345.98301 c -5.805027,-2.07033 -8.797638,-4.83341 -11.419991,-10.54409 -2.033017,-4.42728 -2.141047,-10.80777 -2.165355,-127.88958 -0.0212,-102.0893 0.249576,-123.872922 1.57835,-126.978467 1.93969,-4.533348 7.114712,-9.560488 11.577478,-11.246637 2.269724,-0.857561 63.703838,-1.239052 199.533398,-1.239052 164.05389,0 196.86902,0.263164 200.00261,1.603934 4.53334,1.93969 9.56049,7.114712 11.24664,11.577478 0.84701,2.241813 1.23905,42.337534 1.23905,126.724644 0,101.6245 -0.28088,124.11747 -1.58902,127.24825 -2.02589,4.84868 -7.74691,9.6728 -13.30014,11.21509 -2.90332,0.80634 -68.31115,1.1885 -198.29487,1.15858 -160.569359,-0.037 -194.727884,-0.3176 -198.40815,-1.63015 z"
     id="path4647"
     inkscape:connector-curvature="0" />
  <flowRoot
     xml:space="preserve"
     id="flowRoot4649"
     style="font-style:normal;font-variant:normal;font-weight:bold;font-stretch:normal;font-size:160px;line-height:1.25;font-family:Manjari;-inkscape-font-specification:'Manjari Bold';letter-spacing:-6.65999985px;word-spacing:0px;fill:#f2f2f2;fill-opacity:1;stroke:none;"
     transform="matrix(1.2749539,0,0,1.2667876,104.78986,-33.323606)"><flowRegion
       id="flowRegion4651"
       style="font-style:normal;font-variant:normal;font-weight:bold;font-stretch:normal;font-size:160px;font-family:Manjari;-inkscape-font-specification:'Manjari Bold';letter-spacing:-6.65999985px;fill:#f2f2f2;"><rect
         id="rect4653"
         width="490.93369"
         height="190.29134"
         x="-9.8884115"
         y="121.95708"
         style="font-style:normal;font-variant:normal;font-weight:bold;font-stretch:normal;font-size:160px;font-family:Manjari;-inkscape-font-specification:'Manjari Bold';letter-spacing:-6.65999985px;fill:#f2f2f2;" /></flowRegion><flowPara
       id="flowPara4655"
       style="font-style:normal;font-variant:normal;font-weight:bold;font-stretch:normal;font-size:160px;font-family:Manjari;-inkscape-font-specification:'Manjari Bold';letter-spacing:-6.65999985px;fill:#f2f2f2;">GS</flowPara></flowRoot>  <flowRoot
     xml:space="preserve"
     id="flowRoot4661"
     style="font-style:normal;font-variant:normal;font-weight:normal;font-stretch:normal;font-size:40px;line-height:1.25;font-family:Dyuthi;-inkscape-font-specification:Dyuthi;text-align:start;letter-spacing:0px;word-spacing:0px;text-anchor:start;fill:#999999;fill-opacity:1;stroke:none;"
     transform="matrix(0.74736193,0,0,1.8076399,14.810743,-158.96031)"><flowRegion
       id="flowRegion4663"
       style="font-style:normal;font-variant:normal;font-weight:normal;font-stretch:normal;font-family:Dyuthi;-inkscape-font-specification:Dyuthi;fill:#999999;"><rect
         id="rect4665"
         width="476.84119"
         height="193.3734"
         x="29.665236"
         y="116.46352"
         style="font-style:normal;font-variant:normal;font-weight:normal;font-stretch:normal;font-family:Dyuthi;-inkscape-font-specification:Dyuthi;fill:#999999;" /></flowRegion><flowPara
       id="flowPara4667"
       style="font-style:normal;font-variant:normal;font-weight:normal;font-stretch:normal;font-size:160px;font-family:Dyuthi;-inkscape-font-specification:Dyuthi;fill:#999999;">&lt;</flowPara></flowRoot>  <text
     xml:space="preserve"
     style="font-style:normal;font-weight:normal;font-size:54.59805679px;line-height:1.25;font-family:sans-serif;text-align:start;letter-spacing:0px;word-spacing:0px;text-anchor:start;fill:#999999;fill-opacity:1;stroke:none;stroke-width:1.36495137;"
     x="321.99985"
     y="280.75287"
     id="text4713"
     transform="scale(1.0585663,0.94467393)"><tspan
       sodipodi:role="line"
       id="tspan4711"
       x="321.99985"
       y="280.75287"
       style="font-style:normal;font-variant:normal;font-weight:normal;font-stretch:normal;font-size:181.99351501px;font-family:'Phetsarath OT';-inkscape-font-specification:'Phetsarath OT';fill:#999999;stroke-width:1.36495137;">/</tspan></text>
  <flowRoot
     xml:space="preserve"
     id="flowRoot4661-5"
     style="font-style:normal;font-variant:normal;font-weight:normal;font-stretch:normal;font-size:40px;line-height:1.25;font-family:Dyuthi;-inkscape-font-specification:Dyuthi;text-align:start;letter-spacing:0px;word-spacing:0px;text-anchor:start;fill:#999999;fill-opacity:1;stroke:none;"
     transform="matrix(-0.74736193,0,0,1.8076399,485.26655,-158.96031)"><flowRegion
       id="flowRegion4663-6"
       style="font-style:normal;font-variant:normal;font-weight:normal;font-stretch:normal;font-family:Dyuthi;-inkscape-font-specification:Dyuthi;fill:#999999;"><rect
         id="rect4665-1"
         width="476.84119"
         height="193.3734"
         x="29.665236"
         y="116.46352"
         style="font-style:normal;font-variant:normal;font-weight:normal;font-stretch:normal;font-family:Dyuthi;-inkscape-font-specification:Dyuthi;fill:#999999;" /></flowRegion><flowPara
       id="flowPara4667-4"
       style="font-style:normal;font-variant:normal;font-weight:normal;font-stretch:normal;font-size:160px;font-family:Dyuthi;-inkscape-font-specification:Dyuthi;fill:#999999;">&lt;</flowPara></flowRoot></svg>
