<?xml version="1.0" ?><!DOCTYPE svg  PUBLIC '-//W3C//DTD SVG 1.1//EN'  'http://www.w3.org/Graphics/SVG/1.1/DTD/svg11.dtd'><svg enable-background="new 0 0 42 51" height="51px" id="Layer_1" version="1.1" viewBox="0 0 42 51" width="42px" xml:space="preserve" xmlns="http://www.w3.org/2000/svg" xmlns:xlink="http://www.w3.org/1999/xlink"><g><path d="M37.5,0h-32C2.739,0,0,2.155,0,5.43v39.14c0,1.449,0.538,2.874,1.375,4.014   c0-0.001-0.001-0.002-0.001-0.003C2.175,50.047,3.451,51,4.893,51h32.214H37.5c2.762,0,4.5-3.155,4.5-6.43V5.43   C42,2.155,40.262,0,37.5,0z M5,5.43C5,4.954,5.654,5,5.756,5H37h0.244C37.346,5,37,4.954,37,5.43V39H5V5.43z M37.107,48H4.893   C4.468,48,3.5,46.867,3.5,45s0.968-3,1.393-3H37h0.107c0.425,0,1.393,1.133,1.393,3S37.532,48,37.107,48z"/><path d="M30.9,17H11.1c-0.608,0-1.1,0.448-1.1,1v2c0,0.552,0.492,1,1.1,1h19.8c0.607,0,1.1-0.448,1.1-1v-2   C32,17.448,31.508,17,30.9,17z"/><path d="M30.9,10H11.1c-0.608,0-1.1,0.448-1.1,1v2c0,0.552,0.492,1,1.1,1h19.8c0.607,0,1.1-0.448,1.1-1v-2   C32,10.448,31.508,10,30.9,10z"/></g></svg>